# xmcd
#
# Track frame offsets:
#  150
#  22749
#  39439
#  60742
#  72528
#  91409
#  110183
#  122991
#  143625
#  155124
#  171532
#  185132
#  196846
#  207724
#  223875
#  234596
#  251495
#  262504
#  284857
#
# Disc length: 3987 seconds
#
# Revision: 0
# Processed by: cddbd v1.5.1PL0 Copyright (c) Steve Scherf et al.
# Submitted via: Collectorz.com Music Collector 6.9
#
DISCID=320f9113
DTITLE=Dutch Tilders - Mine and Some I Adopted
DYEAR=2005
DGENRE=Blues -  Blues Acoustic
TTITLE0=Step A Little Lighter
TTITLE1=Going Back To The City
TTITLE2=Crying Won't Make Me Stay
TTITLE3=Good Morning Cigarette
TTITLE4=Paraplu
TTITLE5=Nobody Knows You (When You're Down And Out)
TTITLE6=Knocking On The Door Of Your Heart
TTITLE7=House Of The Rising Sun
TTITLE8=Hey, Baby, Hey
TTITLE9=St. James Infirmary
TTITLE10=Smoking Woman
TTITLE11=Them That's Got
TTITLE12=When I Get Back On My Feet Again
TTITLE13=Willie Mae
TTITLE14=Stoned Again
TTITLE15=I'm A Bluesman
TTITLE16=21st Birthday Rag
TTITLE17=Chimney Sweep
TTITLE18=Sad Dog
EXTD=
EXTT0=
EXTT1=
EXTT2=
EXTT3=
EXTT4=
EXTT5=
EXTT6=
EXTT7=
EXTT8=
EXTT9=
EXTT10=
EXTT11=
EXTT12=
EXTT13=
EXTT14=
EXTT15=
EXTT16=
EXTT17=
EXTT18=
PLAYORDER=
